<?xml version="1.0" standalone="no"?>
<!DOCTYPE svg PUBLIC "-//W3C//DTD SVG 20010904//EN"
 "http://www.w3.org/TR/2001/REC-SVG-20010904/DTD/svg10.dtd">
<svg version="1.0" xmlns="http://www.w3.org/2000/svg"
 width="200.000000pt" height="200.000000pt" viewBox="0 0 200.000000 200.000000"
 preserveAspectRatio="xMidYMid meet">

<g transform="translate(0.000000,200.000000) scale(0.100000,-0.100000)"
fill="#000000" stroke="none">
<path d="M0 1000 l0 -1000 1000 0 1000 0 0 1000 0 1000 -1000 0 -1000 0 0
-1000z m1250 509 c41 -18 120 -84 120 -100 0 -3 -30 -4 -67 -2 -58 4 -80 0
-151 -26 -97 -36 -134 -39 -162 -11 -24 24 -25 51 -6 89 41 79 153 100 266 50z
m-760 -48 c32 -23 59 -70 62 -105 2 -22 6 -26 23 -21 11 4 43 9 70 11 132 13
238 -136 130 -182 -45 -18 -86 -18 -151 3 -51 16 -54 16 -74 -2 -11 -10 -25
-35 -31 -56 -30 -98 42 -182 156 -182 84 0 137 37 239 166 120 151 239 219
381 219 135 -1 248 -71 311 -192 26 -49 29 -65 29 -150 0 -89 -2 -100 -35
-165 -52 -104 -160 -210 -270 -264 -106 -51 -195 -71 -330 -71 -135 0 -225 20
-328 71 -197 96 -302 270 -289 476 3 49 14 108 28 148 24 65 24 66 5 98 -45
75 -56 104 -56 143 0 34 5 47 27 64 30 24 62 21 103 -9z"/>
</g>
</svg>
